<?xml version="1.0" standalone="no"?>
<!DOCTYPE svg PUBLIC "-//W3C//DTD SVG 20010904//EN"
 "http://www.w3.org/TR/2001/REC-SVG-20010904/DTD/svg10.dtd">
<svg version="1.0" xmlns="http://www.w3.org/2000/svg"
 width="400.000000pt" height="400.000000pt" viewBox="0 0 400.000000 400.000000"
 preserveAspectRatio="xMidYMid meet">
<metadata>
Created by potrace 1.14, written by Peter Selinger 2001-2017
</metadata>
<g transform="translate(0.000000,400.000000) scale(0.100000,-0.100000)"
fill="#000000" stroke="none">
<path d="M1750 3720 c-390 -32 -537 -54 -597 -93 -12 -7 -55 -134 -68 -197 -4
-19 -27 -118 -52 -220 -24 -102 -53 -223 -63 -270 -10 -47 -23 -98 -29 -113
l-11 -29 -133 4 c-127 3 -134 5 -195 37 -84 44 -117 39 -189 -32 -31 -29 -53
-60 -53 -72 1 -39 49 -78 115 -91 87 -17 129 -24 190 -29 39 -4 75 -10 80 -13
6 -4 40 -5 77 -3 81 3 107 -4 102 -27 -11 -43 -20 -260 -13 -287 5 -16 10 -46
12 -65 3 -19 8 -47 12 -62 6 -24 4 -28 -22 -34 -15 -4 -34 -11 -40 -17 -19
-14 -16 -94 7 -167 44 -142 88 -264 118 -323 27 -54 112 -300 112 -326 0 -13
133 -285 174 -356 40 -69 45 -86 16 -60 -39 35 -19 -1 26 -48 42 -44 80 -109
132 -227 11 -25 34 -61 52 -80 17 -19 39 -47 47 -61 11 -18 36 -33 82 -49 36
-13 78 -29 92 -36 15 -7 37 -15 50 -18 13 -2 35 -7 49 -10 14 -3 40 -8 59 -10
18 -3 73 -15 122 -27 l90 -22 42 20 c23 11 83 32 132 48 164 50 270 86 291
100 12 8 40 51 62 97 23 46 75 143 116 215 42 73 76 137 76 143 0 21 68 217
91 263 5 10 21 55 35 100 15 45 30 84 34 87 8 5 43 144 54 215 12 73 48 208
68 254 34 80 67 323 48 347 -13 14 -16 122 -10 301 l4 102 98 0 c120 0 242 8
325 22 56 10 63 14 78 44 26 57 6 136 -50 199 -22 24 -31 28 -61 23 -20 -3
-57 -20 -83 -37 -44 -27 -55 -30 -132 -30 -46 1 -109 7 -139 14 l-55 12 -38
105 c-20 57 -47 147 -58 199 -12 52 -26 104 -31 114 -10 19 -46 121 -113 316
-42 126 -48 136 -92 152 -36 12 -195 15 -514 9 -53 0 -173 0 -265 3 -93 2
-212 0 -264 -4z m243 -65 c-3 -9 -8 -14 -10 -11 -3 3 -2 9 2 15 9 16 15 13 8
-4z m51 -58 c-2 -7 -14 -19 -27 -26 -21 -13 -21 -12 2 13 27 29 33 32 25 13z
m777 -42 c6 -20 6 -26 -1 -19 -5 5 -12 25 -15 44 -5 36 -1 29 16 -25z m-711
25 c0 -5 -5 -10 -11 -10 -5 0 -7 5 -4 10 3 6 8 10 11 10 2 0 4 -4 4 -10z m250
7 c0 -2 -10 -12 -22 -23 l-23 -19 19 23 c18 21 26 27 26 19z m-440 -17 c0 -5
-5 -10 -11 -10 -5 0 -7 5 -4 10 3 6 8 10 11 10 2 0 4 -4 4 -10z m310 -25 c-7
-9 -15 -13 -17 -11 -7 7 7 26 19 26 6 0 6 -6 -2 -15z m75 -25 c-3 -5 -11 -10
-16 -10 -6 0 -7 5 -4 10 3 6 11 10 16 10 6 0 7 -4 4 -10z m-289 -28 c-17 -16
-18 -16 -5 5 7 12 15 20 18 17 3 -2 -3 -12 -13 -22z m-66 -40 c0 -14 -39 -46
-47 -39 -3 4 2 16 12 27 19 21 35 26 35 12z m480 4 c0 -3 -4 -8 -10 -11 -5 -3
-10 -1 -10 4 0 6 5 11 10 11 6 0 10 -2 10 -4z m-647 -21 c-3 -9 -8 -14 -10
-11 -3 3 -2 9 2 15 9 16 15 13 8 -4z m-513 -5 c0 -5 -5 -10 -11 -10 -5 0 -7 5
-4 10 3 6 8 10 11 10 2 0 4 -4 4 -10z m1122 -22 c-7 -7 -12 -8 -12 -2 0 14 12
26 19 19 2 -3 -1 -11 -7 -17z m-17 -28 c3 -5 1 -10 -4 -10 -6 0 -11 5 -11 10
0 6 2 10 4 10 3 0 8 -4 11 -10z m-975 -4 c0 -3 -4 -8 -10 -11 -5 -3 -10 -1
-10 4 0 6 5 11 10 11 6 0 10 -2 10 -4z m960 -26 c0 -5 -5 -10 -11 -10 -5 0 -7
5 -4 10 3 6 8 10 11 10 2 0 4 -4 4 -10z m55 -30 c3 -5 1 -10 -4 -10 -6 0 -11
5 -11 10 0 6 2 10 4 10 3 0 8 -4 11 -10z m-805 -10 c0 -5 -2 -10 -4 -10 -3 0
-8 5 -11 10 -3 6 -1 10 4 10 6 0 11 -4 11 -10z m310 -6 c0 -8 -5 -12 -10 -9
-6 4 -8 11 -5 16 9 14 15 11 15 -7z m-843 -16 c-3 -8 -6 -5 -6 6 -1 11 2 17 5
13 3 -3 4 -12 1 -19z m396 -13 c-3 -9 -8 -14 -10 -11 -3 3 -2 9 2 15 9 16 15
13 8 -4z m927 5 c0 -5 -2 -10 -4 -10 -3 0 -8 5 -11 10 -3 6 -1 10 4 10 6 0 11
-4 11 -10z m-1251 -49 c-6 -18 -13 -30 -15 -28 -2 2 1 18 7 36 6 18 13 30 15
28 2 -2 -1 -18 -7 -36z m431 35 c0 -3 -4 -8 -10 -11 -5 -3 -10 -1 -10 4 0 6 5
11 10 11 6 0 10 -2 10 -4z m-475 -36 c-4 -12 -9 -19 -12 -17 -3 3 -2 15 2 27
4 12 9 19 12 17 3 -3 2 -15 -2 -27z m1888 -20 c3 -11 1 -18 -4 -14 -5 3 -9 12
-9 20 0 20 7 17 13 -6z m-989 2 c3 -5 -1 -9 -9 -9 -8 0 -15 4 -15 9 0 4 4 8 9
8 6 0 12 -4 15 -8z m76 -2 c0 -5 -2 -10 -4 -10 -3 0 -8 5 -11 10 -3 6 -1 10 4
10 6 0 11 -4 11 -10z m-956 -85 c-9 -14 -18 -25 -21 -25 -5 0 5 18 20 38 17
22 18 13 1 -13z m-107 -77 c-3 -8 -6 -5 -6 6 -1 11 2 17 5 13 3 -3 4 -12 1
-19z m1363 -32 c0 -3 -4 -8 -10 -11 -5 -3 -10 -1 -10 4 0 6 5 11 10 11 6 0 10
-2 10 -4z m50 0 c0 -3 -4 -8 -10 -11 -5 -3 -10 -1 -10 4 0 6 5 11 10 11 6 0
10 -2 10 -4z m-80 -40 c0 -3 -4 -8 -10 -11 -5 -3 -10 -1 -10 4 0 6 5 11 10 11
6 0 10 -2 10 -4z m-740 -60 c0 -3 -4 -8 -10 -11 -5 -3 -10 -1 -10 4 0 6 5 11
10 11 6 0 10 -2 10 -4z m298 -35 c-7 -12 -16 -21 -21 -21 -4 0 0 11 9 25 20
30 31 26 12 -4z m1646 -226 c3 -8 1 -15 -4 -15 -6 0 -10 7 -10 15 0 8 2 15 4
15 2 0 6 -7 10 -15z m-637 -31 c-3 -3 -12 -4 -19 -1 -8 3 -5 6 6 6 11 1 17 -2
13 -5z m-1612 -44 c105 -6 242 -15 305 -20 152 -12 304 -15 360 -6 43 6 101 9
515 21 105 3 213 10 240 16 54 12 289 9 301 -4 4 -4 9 -33 11 -65 2 -31 8 -81
13 -111 6 -30 9 -73 9 -95 l-2 -41 -7 40 -7 40 -4 -55 c-1 -30 -3 -67 -3 -82
-1 -31 14 -28 -161 -33 -80 -3 -181 -11 -410 -35 -262 -26 -603 -32 -893 -15
-130 7 -311 14 -402 15 -90 0 -166 3 -168 5 -2 2 -11 47 -20 101 -13 79 -14
114 -5 193 6 53 14 105 18 116 8 20 8 20 -8 0 -14 -19 -15 -19 -10 8 6 28 6
28 72 22 36 -3 152 -10 256 -15z m1755 -44 c0 -39 -6 -30 -13 19 -4 27 -3 35
3 25 5 -8 10 -28 10 -44z m-1950 -506 c0 -5 -2 -10 -4 -10 -3 0 -8 5 -11 10
-3 6 -1 10 4 10 6 0 11 -4 11 -10z m1021 -130 c29 -119 33 -146 44 -315 l7
-100 60 -56 c53 -51 58 -59 52 -85 -10 -42 -12 -44 -43 -44 -18 0 -39 -13 -66
-41 -76 -77 -132 -89 -181 -38 -44 46 -74 59 -117 49 -46 -10 -66 4 -73 52 -6
34 -4 38 34 65 47 33 47 33 62 238 13 173 20 211 62 318 l31 78 50 -3 49 -3
29 -115z m-202 -12 c-23 -67 -33 -117 -36 -178 -7 -141 -23 -264 -38 -287 -8
-12 -23 -24 -34 -28 -19 -6 -91 -93 -91 -110 0 -4 -11 -29 -24 -55 -40 -79
-105 -385 -90 -424 7 -18 53 -50 62 -42 3 3 -5 17 -18 31 -32 35 -29 90 15
260 33 122 63 213 82 242 l16 24 21 -38 c22 -38 22 -38 89 -39 66 0 67 -1 107
-44 40 -43 40 -43 96 -37 43 4 60 11 72 28 44 62 75 89 104 89 18 0 36 8 44
18 12 16 15 15 38 -10 14 -14 33 -39 43 -55 19 -29 43 -42 39 -20 -3 17 -71
120 -89 135 -8 7 -18 23 -21 35 -3 12 -26 36 -50 54 l-43 31 -17 124 c-9 68
-16 135 -16 149 0 14 -11 61 -24 105 -43 147 -44 189 0 121 19 -30 104 -235
104 -251 0 -4 8 -26 18 -49 10 -23 27 -61 37 -85 53 -122 212 -183 405 -153
98 15 148 42 217 114 l56 58 -7 -39 c-11 -73 -76 -266 -111 -334 -20 -38 -32
-68 -29 -68 4 0 1 -7 -6 -15 -6 -8 -9 -19 -5 -24 11 -19 -49 -191 -67 -191 -4
0 -8 -12 -8 -27 0 -16 -10 -44 -22 -63 -37 -58 -57 -93 -84 -145 -15 -27 -29
-52 -33 -55 -6 -5 -53 -98 -57 -112 -1 -5 -2 -12 -3 -18 -3 -25 -246 -118
-405 -154 -67 -16 -166 -13 -166 4 0 5 -28 11 -62 15 -76 8 -233 49 -305 81
-40 17 -55 30 -69 61 -10 21 -32 61 -49 88 -18 28 -49 84 -70 125 -20 41 -45
86 -55 100 -33 47 -57 105 -63 152 -5 36 -22 70 -71 142 -35 52 -69 104 -76
116 -16 30 -66 178 -73 218 l-7 32 33 -16 c28 -15 56 -16 232 -10 110 3 217
11 238 17 74 20 111 67 208 268 88 182 139 266 147 243 2 -6 -11 -53 -29 -104z
m392 -55 c13 -16 12 -17 -3 -4 -10 7 -18 15 -18 17 0 8 8 3 21 -13z m279 -123
c0 -5 -2 -10 -4 -10 -3 0 -8 5 -11 10 -3 6 -1 10 4 10 6 0 11 -4 11 -10z"/>
<path d="M2110 2450 c-25 -5 -126 -9 -225 -10 -171 -1 -306 -15 -288 -30 12
-10 454 6 545 20 56 8 109 8 195 1 180 -16 236 -17 241 -3 2 8 -12 12 -45 13
-26 0 -59 2 -73 4 -75 9 -311 13 -350 5z"/>
<path d="M2025 2349 c-242 -11 -595 -54 -595 -72 0 -5 15 -6 33 -3 41 8 166
24 287 37 52 5 194 14 314 19 176 7 238 6 315 -5 111 -17 241 -20 241 -5 0 6
-28 11 -62 12 -35 0 -67 2 -73 3 -17 2 -237 18 -275 19 -19 1 -102 -2 -185 -5z"/>
<path d="M2009 2256 c-2 -3 -31 -7 -64 -9 -104 -9 -269 -35 -295 -46 -22 -10
-20 -11 17 -6 256 32 317 36 540 36 149 -1 244 3 248 9 4 6 -44 10 -132 11
-76 1 -177 3 -224 5 -47 2 -88 2 -90 0z"/>
<path d="M1517 1158 c-6 -32 -21 -163 -32 -283 -5 -52 -2 -70 27 -142 19 -47
39 -83 47 -83 9 0 11 6 6 18 -4 9 -18 46 -30 82 l-23 65 16 178 c11 126 13
180 5 188 -7 7 -12 1 -16 -23z"/>
<path d="M1727 1150 c-52 -125 -67 -179 -66 -230 l1 -35 14 44 c19 63 26 64
18 3 -4 -34 -3 -52 4 -52 10 0 15 17 28 100 3 25 15 73 26 108 28 91 7 142
-25 62z"/>
<path d="M2330 1183 c0 -5 6 -42 14 -83 8 -42 13 -97 12 -123 -4 -56 10 -71
22 -25 l9 33 7 -32 c12 -51 24 -39 15 15 -10 66 -38 173 -51 200 -11 21 -28
30 -28 15z"/>
<path d="M2524 1164 c3 -14 10 -31 15 -38 29 -35 45 -143 46 -303 0 -195 17
-206 23 -15 5 148 -15 271 -54 340 -29 48 -36 53 -30 16z"/>
<path d="M1415 1163 c-11 -3 -5 -167 8 -179 13 -13 14 -1 8 92 -4 54 -10 89
-16 87z"/>
<path d="M2380 1168 c0 -2 11 -39 25 -83 14 -44 25 -90 25 -102 0 -32 10 -53
27 -53 11 0 13 9 8 38 l-6 37 14 -30 c21 -46 30 -13 12 47 -19 66 -19 70 4 32
10 -17 22 -49 26 -72 4 -27 12 -42 22 -42 9 0 12 6 9 18 -3 9 -8 31 -12 47 -8
37 -60 141 -74 150 -5 3 -10 0 -10 -7 0 -10 -2 -10 -9 1 -5 7 -13 11 -19 7 -6
-3 -13 -2 -17 4 -5 9 -25 15 -25 8z"/>
<path d="M1816 1129 c-14 -70 -19 -259 -8 -259 7 0 12 16 12 38 0 20 7 78 15
127 8 50 15 98 15 108 0 30 -27 19 -34 -14z"/>
<path d="M2280 1141 c0 -10 7 -38 15 -61 8 -24 18 -67 22 -97 8 -70 23 -79 23
-13 0 73 -28 190 -46 190 -8 0 -14 -8 -14 -19z"/>
<path d="M1762 1058 c-12 -51 -22 -103 -22 -116 0 -34 24 -22 28 14 2 16 12
63 23 106 23 91 22 88 6 88 -8 0 -21 -34 -35 -92z"/>
<path d="M1880 1145 c0 -3 -8 -45 -19 -93 -28 -131 -31 -152 -22 -152 5 0 19
44 31 98 25 102 45 155 36 92 -14 -101 -18 -190 -7 -190 6 0 11 1 11 3 0 1 7
49 14 107 14 100 13 106 -4 123 -18 16 -40 23 -40 12z"/>
<path d="M1985 1142 c-27 -19 -60 -192 -36 -192 6 0 11 8 11 18 0 9 9 46 19
82 l20 65 -5 -60 c-3 -33 -7 -72 -9 -87 -2 -18 1 -28 9 -28 9 0 15 21 19 58 3
31 9 66 12 78 4 12 1 27 -8 35 -7 8 -16 20 -18 26 -2 7 -9 9 -14 5z"/>
<path d="M2207 1098 c4 -29 7 -83 8 -120 0 -94 19 -81 26 18 3 43 6 70 8 59
10 -75 30 -145 41 -145 13 0 12 17 -4 70 -7 25 -17 73 -21 108 -8 67 -21 82
-28 30 l-4 -33 -1 33 c-1 21 -7 32 -17 32 -12 0 -14 -9 -8 -52z"/>
<path d="M1596 1078 c-24 -86 -32 -158 -17 -158 6 0 11 8 11 19 0 10 9 54 20
97 22 88 24 104 12 104 -5 0 -17 -28 -26 -62z"/>
<path d="M2166 1033 c4 -60 9 -110 11 -113 2 -2 9 2 14 10 6 9 8 49 4 98 -7
90 -12 112 -26 112 -6 0 -7 -44 -3 -107z"/>
<path d="M2095 1118 c-4 -9 -4 -48 -1 -85 3 -37 5 -83 6 -100 0 -18 5 -33 10
-33 6 0 10 31 11 73 1 51 3 65 9 47 4 -14 8 -40 9 -57 1 -18 6 -33 12 -33 8 0
9 25 4 83 -8 93 -19 124 -31 92 -8 -19 -8 -18 -15 5 -5 21 -7 22 -14 8z"/>
<path d="M2035 1035 c-4 -47 -5 -89 -1 -92 14 -15 24 16 31 95 6 70 5 82 -8
82 -12 0 -17 -19 -22 -85z"/>
<path d="M2704 1096 c-7 -19 3 -52 13 -42 12 11 13 45 3 51 -6 4 -13 -1 -16
-9z"/>
<path d="M2648 1009 c3 -49 7 -68 14 -61 11 11 13 80 3 112 -13 40 -20 18 -17
-51z"/>
<path d="M2335 869 c-44 -5 -184 -12 -312 -17 -243 -9 -263 -13 -263 -56 0
-21 1 -21 18 2 17 22 22 23 257 28 131 3 241 7 245 9 3 2 50 5 104 6 83 1 97
4 94 18 -4 19 -34 22 -143 10z"/>
</g>
</svg>
